<mxfile host="Electron" agent="Mozilla/5.0 (Windows NT 10.0; Win64; x64) AppleWebKit/537.36 (KHTML, like Gecko) draw.io/24.7.17 Chrome/128.0.6613.36 Electron/32.0.1 Safari/537.36" version="24.7.17">
  <diagram name="Page-1" id="r4dEP2UwfFf9uhS1oUgF">
    <mxGraphModel dx="1105" dy="654" grid="1" gridSize="10" guides="1" tooltips="1" connect="1" arrows="1" fold="1" page="1" pageScale="1" pageWidth="10000" pageHeight="10000" math="0" shadow="0">
      <root>
        <mxCell id="0" />
        <mxCell id="1" parent="0" />
        <mxCell id="lPK5GDI6R3Ej2c6hZMQd-3" value="" style="curved=1;endArrow=classic;html=1;rounded=0;startArrow=none;startFill=0;entryX=0.25;entryY=1;entryDx=0;entryDy=0;exitX=0;exitY=0.5;exitDx=0;exitDy=0;strokeWidth=2;flowAnimation=0;shadow=0;fillColor=#1ba1e2;strokeColor=#006EAF;" parent="1" source="lPK5GDI6R3Ej2c6hZMQd-23" target="lPK5GDI6R3Ej2c6hZMQd-5" edge="1">
          <mxGeometry width="50" height="50" relative="1" as="geometry">
            <mxPoint x="4500" y="4990" as="sourcePoint" />
            <mxPoint x="4340" y="4930" as="targetPoint" />
            <Array as="points">
              <mxPoint x="4340" y="4940" />
            </Array>
          </mxGeometry>
        </mxCell>
        <mxCell id="lPK5GDI6R3Ej2c6hZMQd-5" value="Students" style="rounded=0;whiteSpace=wrap;html=1;fillColor=#0050ef;strokeColor=#001DBC;fontSize=15;fontStyle=1;fontColor=#ffffff;" parent="1" vertex="1">
          <mxGeometry x="4260" y="4760" width="120" height="60" as="geometry" />
        </mxCell>
        <mxCell id="lPK5GDI6R3Ej2c6hZMQd-6" value="Teachers" style="rounded=0;whiteSpace=wrap;html=1;fillColor=#0050ef;strokeColor=#001DBC;fontSize=15;fontStyle=1;fontColor=#ffffff;" parent="1" vertex="1">
          <mxGeometry x="4760" y="4750" width="120" height="60" as="geometry" />
        </mxCell>
        <mxCell id="lPK5GDI6R3Ej2c6hZMQd-7" value="" style="curved=1;endArrow=classic;html=1;rounded=0;startArrow=none;startFill=0;entryX=0.5;entryY=0;entryDx=0;entryDy=0;exitX=1;exitY=0.75;exitDx=0;exitDy=0;strokeWidth=2;flowAnimation=0;shadow=0;fillColor=#1ba1e2;strokeColor=#006EAF;" parent="1" source="lPK5GDI6R3Ej2c6hZMQd-5" target="lPK5GDI6R3Ej2c6hZMQd-23" edge="1">
          <mxGeometry width="50" height="50" relative="1" as="geometry">
            <mxPoint x="4500" y="4900" as="sourcePoint" />
            <mxPoint x="4600.5025253169415" y="4970.5025253169415" as="targetPoint" />
            <Array as="points">
              <mxPoint x="4480" y="4820" />
            </Array>
          </mxGeometry>
        </mxCell>
        <mxCell id="lPK5GDI6R3Ej2c6hZMQd-9" value="" style="curved=1;endArrow=none;html=1;rounded=0;startArrow=classic;startFill=1;entryX=0.5;entryY=1;entryDx=0;entryDy=0;exitX=1;exitY=0.5;exitDx=0;exitDy=0;endFill=0;strokeWidth=2;flowAnimation=0;shadow=0;fillColor=#1ba1e2;strokeColor=#006EAF;" parent="1" source="lPK5GDI6R3Ej2c6hZMQd-23" target="lPK5GDI6R3Ej2c6hZMQd-6" edge="1">
          <mxGeometry width="50" height="50" relative="1" as="geometry">
            <mxPoint x="4720" y="5020" as="sourcePoint" />
            <mxPoint x="5021" y="5071" as="targetPoint" />
            <Array as="points">
              <mxPoint x="4700" y="4930" />
            </Array>
          </mxGeometry>
        </mxCell>
        <mxCell id="lPK5GDI6R3Ej2c6hZMQd-10" value="" style="curved=1;endArrow=classic;html=1;rounded=0;exitX=1;exitY=0;exitDx=0;exitDy=0;startArrow=none;startFill=0;entryX=0;entryY=0.75;entryDx=0;entryDy=0;strokeWidth=2;flowAnimation=0;shadow=0;fillColor=#1ba1e2;strokeColor=#006EAF;" parent="1" source="lPK5GDI6R3Ej2c6hZMQd-23" target="lPK5GDI6R3Ej2c6hZMQd-6" edge="1">
          <mxGeometry width="50" height="50" relative="1" as="geometry">
            <mxPoint x="4699.4974746830585" y="4970.5025253169415" as="sourcePoint" />
            <mxPoint x="4760" y="4790" as="targetPoint" />
            <Array as="points">
              <mxPoint x="4610" y="4800" />
            </Array>
          </mxGeometry>
        </mxCell>
        <mxCell id="lPK5GDI6R3Ej2c6hZMQd-18" value="Main Database" style="shape=partialRectangle;whiteSpace=wrap;html=1;left=0;right=0;fillColor=#0050ef;strokeColor=#5da3ee;strokeWidth=3;fontSize=15;fontStyle=1;fontColor=#ffffff;" parent="1" vertex="1">
          <mxGeometry x="5050" y="4780" width="120" height="60" as="geometry" />
        </mxCell>
        <mxCell id="lPK5GDI6R3Ej2c6hZMQd-23" value="User Authentication" style="ellipse;whiteSpace=wrap;html=1;aspect=fixed;fillColor=#0050ef;strokeColor=#001DBC;fontSize=15;fontStyle=1;points=[[0,0,0,0,0],[0,0.5,0,0,0],[0,1,0,0,0],[0.04,0.31,0,0,0],[0.05,0.7,0,0,0],[0.3,0.96,0,0,0],[0.32,0.03,0,0,0],[0.5,0,0,0,0],[0.5,1,0,0,0],[0.69,0.04,0,0,0],[0.71,0.96,0,0,0],[0.96,0.31,0,0,0],[0.96,0.7,0,0,0],[1,0,0,0,0],[1,0.5,0,0,0],[1,1,0,0,0]];fontColor=#ffffff;" parent="1" vertex="1">
          <mxGeometry x="4440" y="4880" width="110" height="110" as="geometry" />
        </mxCell>
        <mxCell id="lPK5GDI6R3Ej2c6hZMQd-24" value="Manage Reports" style="ellipse;whiteSpace=wrap;html=1;aspect=fixed;fillColor=#0050ef;strokeColor=#001DBC;fontSize=15;fontStyle=1;fontColor=#ffffff;" parent="1" vertex="1">
          <mxGeometry x="5350" y="4910" width="110" height="110" as="geometry" />
        </mxCell>
        <mxCell id="lPK5GDI6R3Ej2c6hZMQd-25" value="Manage Behaviour" style="ellipse;whiteSpace=wrap;html=1;aspect=fixed;fillColor=#0050ef;strokeColor=#001DBC;fontSize=15;fontStyle=1;fontColor=#ffffff;" parent="1" vertex="1">
          <mxGeometry x="5440" y="4690" width="110" height="110" as="geometry" />
        </mxCell>
        <mxCell id="lPK5GDI6R3Ej2c6hZMQd-26" value="Manage Timetable" style="ellipse;whiteSpace=wrap;html=1;aspect=fixed;fillColor=#0050ef;strokeColor=#001DBC;fontSize=15;fontStyle=1;fontColor=#ffffff;" parent="1" vertex="1">
          <mxGeometry x="5270" y="4560" width="110" height="110" as="geometry" />
        </mxCell>
        <mxCell id="lPK5GDI6R3Ej2c6hZMQd-27" value="Manage Dashboard" style="ellipse;whiteSpace=wrap;html=1;aspect=fixed;fillColor=#0050ef;strokeColor=#001DBC;fontSize=15;fontStyle=1;fontColor=#ffffff;" parent="1" vertex="1">
          <mxGeometry x="4990" y="5070" width="110" height="110" as="geometry" />
        </mxCell>
        <mxCell id="lPK5GDI6R3Ej2c6hZMQd-28" value="Manage Notifications" style="ellipse;whiteSpace=wrap;html=1;aspect=fixed;fillColor=#0050ef;strokeColor=#001DBC;fontSize=15;fontStyle=1;fontColor=#ffffff;" parent="1" vertex="1">
          <mxGeometry x="4440" y="5020" width="110" height="110" as="geometry" />
        </mxCell>
        <mxCell id="lPK5GDI6R3Ej2c6hZMQd-29" value="Manage Assignments" style="ellipse;whiteSpace=wrap;html=1;aspect=fixed;fillColor=#0050ef;strokeColor=#001DBC;fontSize=15;fontStyle=1;fontColor=#ffffff;" parent="1" vertex="1">
          <mxGeometry x="5210" y="5080" width="110" height="110" as="geometry" />
        </mxCell>
        <mxCell id="lPK5GDI6R3Ej2c6hZMQd-30" value="Manage Attendance" style="ellipse;whiteSpace=wrap;html=1;aspect=fixed;fillColor=#0050ef;strokeColor=#001DBC;fontSize=15;fontStyle=1;fontColor=#ffffff;" parent="1" vertex="1">
          <mxGeometry x="4710" y="5020" width="110" height="110" as="geometry" />
        </mxCell>
        <mxCell id="lPK5GDI6R3Ej2c6hZMQd-32" value="&lt;div&gt;&lt;b style=&quot;background-color: initial;&quot;&gt;Email&lt;/b&gt;&lt;/div&gt;&lt;div&gt;&lt;b&gt;Password&lt;/b&gt;&lt;/div&gt;" style="text;html=1;align=left;verticalAlign=middle;resizable=0;points=[];autosize=1;strokeColor=none;fillColor=none;fontColor=#A3A3A3;" parent="1" vertex="1">
          <mxGeometry x="4410" y="4815" width="80" height="40" as="geometry" />
        </mxCell>
        <mxCell id="lPK5GDI6R3Ej2c6hZMQd-34" value="&lt;b&gt;Auth Token&lt;/b&gt;" style="text;html=1;align=left;verticalAlign=middle;resizable=0;points=[];autosize=1;strokeColor=none;fillColor=none;rotation=0;fontColor=#A3A3A3;" parent="1" vertex="1">
          <mxGeometry x="4340" y="4881" width="90" height="30" as="geometry" />
        </mxCell>
        <mxCell id="lPK5GDI6R3Ej2c6hZMQd-37" value="&lt;div&gt;&lt;b style=&quot;background-color: initial;&quot;&gt;Email&lt;/b&gt;&lt;/div&gt;&lt;div&gt;&lt;b&gt;Password&lt;/b&gt;&lt;/div&gt;" style="text;html=1;align=left;verticalAlign=middle;resizable=0;points=[];autosize=1;strokeColor=none;fillColor=none;fontColor=#A3A3A3;" parent="1" vertex="1">
          <mxGeometry x="4650" y="4810" width="80" height="40" as="geometry" />
        </mxCell>
        <mxCell id="lPK5GDI6R3Ej2c6hZMQd-39" value="&lt;b&gt;Auth Token&lt;/b&gt;" style="text;html=1;align=left;verticalAlign=middle;resizable=0;points=[];autosize=1;strokeColor=none;fillColor=none;rotation=0;fontColor=#A3A3A3;" parent="1" vertex="1">
          <mxGeometry x="4590" y="4900" width="90" height="30" as="geometry" />
        </mxCell>
        <mxCell id="lPK5GDI6R3Ej2c6hZMQd-40" value="" style="curved=1;endArrow=classic;html=1;rounded=0;startArrow=none;startFill=0;exitX=1;exitY=0.25;exitDx=0;exitDy=0;entryX=0;entryY=0;entryDx=0;entryDy=0;strokeWidth=2;flowAnimation=0;shadow=0;fillColor=#1ba1e2;strokeColor=#006EAF;" parent="1" source="lPK5GDI6R3Ej2c6hZMQd-5" target="lPK5GDI6R3Ej2c6hZMQd-6" edge="1">
          <mxGeometry width="50" height="50" relative="1" as="geometry">
            <mxPoint x="4390" y="4800" as="sourcePoint" />
            <mxPoint x="4680" y="4640" as="targetPoint" />
            <Array as="points">
              <mxPoint x="4480" y="4630" />
            </Array>
          </mxGeometry>
        </mxCell>
        <mxCell id="lPK5GDI6R3Ej2c6hZMQd-41" value="&lt;b&gt;Attendance&lt;/b&gt;&lt;div&gt;&lt;b&gt;Test dates&lt;/b&gt;&lt;/div&gt;" style="text;html=1;align=left;verticalAlign=middle;resizable=0;points=[];autosize=1;strokeColor=none;fillColor=none;fontColor=#A3A3A3;" parent="1" vertex="1">
          <mxGeometry x="4515" y="4700" width="90" height="40" as="geometry" />
        </mxCell>
        <mxCell id="lPK5GDI6R3Ej2c6hZMQd-42" value="" style="curved=1;endArrow=none;html=1;rounded=0;startArrow=classic;startFill=1;exitX=1;exitY=0.5;exitDx=0;exitDy=0;endFill=0;strokeWidth=2;flowAnimation=0;shadow=0;fillColor=#1ba1e2;strokeColor=#006EAF;" parent="1" source="lPK5GDI6R3Ej2c6hZMQd-5" edge="1">
          <mxGeometry width="50" height="50" relative="1" as="geometry">
            <mxPoint x="4390" y="4785" as="sourcePoint" />
            <mxPoint x="4760" y="4770" as="targetPoint" />
            <Array as="points">
              <mxPoint x="4560" y="4830" />
            </Array>
          </mxGeometry>
        </mxCell>
        <mxCell id="lPK5GDI6R3Ej2c6hZMQd-44" value="&lt;b&gt;Student attendance&lt;/b&gt;&lt;div&gt;&lt;b style=&quot;background-color: initial;&quot;&gt;New assigments&lt;/b&gt;&lt;/div&gt;&lt;div&gt;&lt;b&gt;New tests&lt;/b&gt;&lt;/div&gt;&lt;div&gt;&lt;b&gt;New behaviour event&lt;/b&gt;&lt;/div&gt;&lt;div&gt;&lt;b&gt;New announcements&lt;/b&gt;&lt;/div&gt;&lt;div&gt;&lt;b&gt;Timetable lessons&lt;/b&gt;&lt;/div&gt;" style="text;html=1;align=left;verticalAlign=middle;resizable=0;points=[];autosize=1;strokeColor=none;fillColor=none;fontColor=#A3A3A3;" parent="1" vertex="1">
          <mxGeometry x="4901" y="4640" width="140" height="100" as="geometry" />
        </mxCell>
        <mxCell id="lPK5GDI6R3Ej2c6hZMQd-45" value="" style="curved=1;endArrow=none;html=1;rounded=0;startArrow=classic;startFill=1;exitX=0.25;exitY=0;exitDx=0;exitDy=0;entryX=0.5;entryY=0;entryDx=0;entryDy=0;endFill=0;strokeWidth=2;flowAnimation=0;shadow=0;fillColor=#1ba1e2;strokeColor=#006EAF;" parent="1" source="lPK5GDI6R3Ej2c6hZMQd-18" target="lPK5GDI6R3Ej2c6hZMQd-6" edge="1">
          <mxGeometry width="50" height="50" relative="1" as="geometry">
            <mxPoint x="4330" y="4770" as="sourcePoint" />
            <mxPoint x="4809" y="4764" as="targetPoint" />
            <Array as="points">
              <mxPoint x="4990" y="4460" />
            </Array>
          </mxGeometry>
        </mxCell>
        <mxCell id="lPK5GDI6R3Ej2c6hZMQd-48" value="" style="curved=1;endArrow=classic;html=1;rounded=0;startArrow=none;startFill=0;exitX=0.25;exitY=1;exitDx=0;exitDy=0;endFill=1;entryX=0.75;entryY=1;entryDx=0;entryDy=0;strokeWidth=2;flowAnimation=0;shadow=0;fillColor=#1ba1e2;strokeColor=#006EAF;" parent="1" source="lPK5GDI6R3Ej2c6hZMQd-18" target="lPK5GDI6R3Ej2c6hZMQd-6" edge="1">
          <mxGeometry width="50" height="50" relative="1" as="geometry">
            <mxPoint x="5136" y="5050" as="sourcePoint" />
            <mxPoint x="4970" y="4830" as="targetPoint" />
            <Array as="points">
              <mxPoint x="4890" y="4950" />
            </Array>
          </mxGeometry>
        </mxCell>
        <mxCell id="lPK5GDI6R3Ej2c6hZMQd-49" value="&lt;b&gt;Student details&lt;/b&gt;&lt;div&gt;&lt;b&gt;Timetable schedule&lt;/b&gt;&lt;/div&gt;&lt;div&gt;&lt;b&gt;Student behaviour&lt;/b&gt;&lt;/div&gt;&lt;div&gt;&lt;b&gt;Student reports&lt;/b&gt;&lt;/div&gt;&lt;div&gt;&lt;b&gt;Student assignments&lt;/b&gt;&lt;/div&gt;&lt;div&gt;&lt;b&gt;Recent announcements&lt;/b&gt;&lt;/div&gt;" style="text;html=1;align=left;verticalAlign=middle;resizable=0;points=[];autosize=1;strokeColor=none;fillColor=none;fontColor=#A3A3A3;" parent="1" vertex="1">
          <mxGeometry x="4890" y="4781" width="160" height="100" as="geometry" />
        </mxCell>
        <mxCell id="lPK5GDI6R3Ej2c6hZMQd-50" value="" style="curved=1;endArrow=none;html=1;rounded=0;startArrow=classic;startFill=1;exitX=0.75;exitY=0;exitDx=0;exitDy=0;entryX=0.5;entryY=0;entryDx=0;entryDy=0;endFill=0;strokeWidth=2;flowAnimation=0;shadow=0;fillColor=#1ba1e2;strokeColor=#006EAF;" parent="1" source="lPK5GDI6R3Ej2c6hZMQd-5" target="lPK5GDI6R3Ej2c6hZMQd-18" edge="1">
          <mxGeometry width="50" height="50" relative="1" as="geometry">
            <mxPoint x="4330" y="4770" as="sourcePoint" />
            <mxPoint x="4809" y="4764" as="targetPoint" />
            <Array as="points">
              <mxPoint x="4460" y="4610" />
              <mxPoint x="5140" y="4560" />
            </Array>
          </mxGeometry>
        </mxCell>
        <mxCell id="lPK5GDI6R3Ej2c6hZMQd-51" value="&lt;b&gt;Attendance&lt;/b&gt;&lt;div&gt;&lt;b&gt;Recent assigments&lt;br&gt;&lt;/b&gt;&lt;div&gt;&lt;b&gt;Timetable schedule&lt;/b&gt;&lt;/div&gt;&lt;div&gt;&lt;b&gt;Behaviour events&lt;/b&gt;&lt;/div&gt;&lt;div&gt;&lt;b&gt;Recent reports&lt;/b&gt;&lt;/div&gt;&lt;div&gt;&lt;b&gt;&lt;br&gt;&lt;/b&gt;&lt;/div&gt;&lt;/div&gt;" style="text;html=1;align=left;verticalAlign=middle;resizable=0;points=[];autosize=1;strokeColor=none;fillColor=none;fontColor=#A3A3A3;" parent="1" vertex="1">
          <mxGeometry x="4690" y="4600" width="130" height="100" as="geometry" />
        </mxCell>
        <mxCell id="lPK5GDI6R3Ej2c6hZMQd-52" value="" style="curved=1;endArrow=none;html=1;rounded=0;startArrow=classic;startFill=1;entryX=0.5;entryY=1;entryDx=0;entryDy=0;endFill=0;exitX=0.697;exitY=0.031;exitDx=0;exitDy=0;exitPerimeter=0;strokeWidth=2;flowAnimation=0;shadow=0;fillColor=#1ba1e2;strokeColor=#006EAF;" parent="1" source="lPK5GDI6R3Ej2c6hZMQd-27" target="lPK5GDI6R3Ej2c6hZMQd-18" edge="1">
          <mxGeometry width="50" height="50" relative="1" as="geometry">
            <mxPoint x="4560" y="4945" as="sourcePoint" />
            <mxPoint x="4830" y="4820" as="targetPoint" />
            <Array as="points">
              <mxPoint x="5230" y="4880" />
            </Array>
          </mxGeometry>
        </mxCell>
        <mxCell id="lPK5GDI6R3Ej2c6hZMQd-55" value="" style="curved=1;endArrow=none;html=1;rounded=0;startArrow=classic;startFill=1;exitX=0.5;exitY=1;exitDx=0;exitDy=0;endFill=0;entryX=0.96;entryY=0.7;entryDx=0;entryDy=0;entryPerimeter=0;strokeWidth=2;flowAnimation=0;shadow=0;fillColor=#1ba1e2;strokeColor=#006EAF;" parent="1" source="lPK5GDI6R3Ej2c6hZMQd-18" edge="1">
          <mxGeometry width="50" height="50" relative="1" as="geometry">
            <mxPoint x="5110" y="4837" as="sourcePoint" />
            <mxPoint x="4545.6" y="4954" as="targetPoint" />
            <Array as="points">
              <mxPoint x="4830" y="4967" />
            </Array>
          </mxGeometry>
        </mxCell>
        <mxCell id="lPK5GDI6R3Ej2c6hZMQd-56" value="&lt;b&gt;Email address&lt;/b&gt;&lt;div&gt;&lt;b&gt;Password&lt;/b&gt;&lt;/div&gt;&lt;div&gt;&lt;b&gt;Auth token&lt;/b&gt;&lt;/div&gt;&lt;div&gt;&lt;b&gt;Expiry date&lt;/b&gt;&lt;/div&gt;" style="text;html=1;align=left;verticalAlign=middle;resizable=0;points=[];autosize=1;strokeColor=none;fillColor=none;fontColor=#A3A3A3;" parent="1" vertex="1">
          <mxGeometry x="4830" y="4900" width="100" height="70" as="geometry" />
        </mxCell>
        <mxCell id="lPK5GDI6R3Ej2c6hZMQd-59" value="&lt;b&gt;Full name&lt;/b&gt;&lt;div&gt;&lt;b&gt;Attendance&lt;/b&gt;&lt;/div&gt;&lt;div&gt;&lt;b&gt;Due assignments&lt;/b&gt;&lt;/div&gt;&lt;div&gt;&lt;b&gt;Recent notices&lt;/b&gt;&lt;/div&gt;&lt;div&gt;&lt;b&gt;Timetable&lt;/b&gt;&lt;/div&gt;&lt;div&gt;&lt;b&gt;Role&lt;/b&gt;&lt;/div&gt;" style="text;html=1;align=left;verticalAlign=middle;resizable=0;points=[];autosize=1;strokeColor=none;fillColor=none;fontColor=#A3A3A3;" parent="1" vertex="1">
          <mxGeometry x="5030" y="4970" width="120" height="100" as="geometry" />
        </mxCell>
        <mxCell id="lPK5GDI6R3Ej2c6hZMQd-60" value="" style="curved=1;endArrow=classic;html=1;rounded=0;startArrow=none;startFill=0;endFill=1;entryX=0.75;entryY=0;entryDx=0;entryDy=0;exitX=0;exitY=0;exitDx=0;exitDy=0;strokeWidth=2;flowAnimation=0;shadow=0;fillColor=#1ba1e2;strokeColor=#006EAF;" parent="1" source="lPK5GDI6R3Ej2c6hZMQd-26" target="lPK5GDI6R3Ej2c6hZMQd-18" edge="1">
          <mxGeometry width="50" height="50" relative="1" as="geometry">
            <mxPoint x="5260" y="4610" as="sourcePoint" />
            <mxPoint x="5190" y="4775" as="targetPoint" />
            <Array as="points">
              <mxPoint x="5090" y="4630" />
            </Array>
          </mxGeometry>
        </mxCell>
        <mxCell id="lPK5GDI6R3Ej2c6hZMQd-61" value="" style="curved=1;endArrow=classic;html=1;rounded=0;startArrow=none;startFill=0;endFill=1;entryX=0.5;entryY=1;entryDx=0;entryDy=0;exitX=1;exitY=0;exitDx=0;exitDy=0;strokeWidth=2;flowAnimation=0;shadow=0;fillColor=#1ba1e2;strokeColor=#006EAF;" parent="1" source="lPK5GDI6R3Ej2c6hZMQd-30" target="lPK5GDI6R3Ej2c6hZMQd-18" edge="1">
          <mxGeometry width="50" height="50" relative="1" as="geometry">
            <mxPoint x="5270" y="4620" as="sourcePoint" />
            <mxPoint x="5150" y="4790" as="targetPoint" />
            <Array as="points">
              <mxPoint x="5080" y="4960" />
            </Array>
          </mxGeometry>
        </mxCell>
        <mxCell id="lPK5GDI6R3Ej2c6hZMQd-63" value="&lt;b&gt;Attendence event&lt;/b&gt;&lt;div&gt;&lt;b&gt;Class id&lt;/b&gt;&lt;/div&gt;&lt;div&gt;&lt;b&gt;Lesson id&lt;/b&gt;&lt;/div&gt;&lt;div&gt;&lt;b&gt;Student is present&lt;/b&gt;&lt;/div&gt;" style="text;html=1;align=left;verticalAlign=middle;resizable=0;points=[];autosize=1;strokeColor=none;fillColor=none;fontColor=#A3A3A3;" parent="1" vertex="1">
          <mxGeometry x="4830" y="4990" width="130" height="70" as="geometry" />
        </mxCell>
        <mxCell id="lPK5GDI6R3Ej2c6hZMQd-64" value="" style="curved=1;endArrow=classic;html=1;rounded=0;startArrow=none;startFill=0;endFill=1;entryX=0;entryY=0;entryDx=0;entryDy=0;exitX=0.25;exitY=1;exitDx=0;exitDy=0;strokeWidth=2;flowAnimation=0;shadow=0;fillColor=#1ba1e2;strokeColor=#006EAF;" parent="1" source="lPK5GDI6R3Ej2c6hZMQd-6" target="lPK5GDI6R3Ej2c6hZMQd-30" edge="1">
          <mxGeometry width="50" height="50" relative="1" as="geometry">
            <mxPoint x="4814" y="5046" as="sourcePoint" />
            <mxPoint x="5120" y="4850" as="targetPoint" />
            <Array as="points">
              <mxPoint x="4620" y="4960" />
            </Array>
          </mxGeometry>
        </mxCell>
        <mxCell id="lPK5GDI6R3Ej2c6hZMQd-65" value="&lt;b&gt;Student attendance&lt;/b&gt;&lt;div&gt;&lt;b&gt;Subject class&lt;/b&gt;&lt;/div&gt;" style="text;html=1;align=left;verticalAlign=middle;resizable=0;points=[];autosize=1;strokeColor=none;fillColor=none;fontColor=#A3A3A3;" parent="1" vertex="1">
          <mxGeometry x="4670" y="4955" width="130" height="40" as="geometry" />
        </mxCell>
        <mxCell id="lPK5GDI6R3Ej2c6hZMQd-66" value="" style="curved=1;endArrow=classic;html=1;rounded=0;startArrow=none;startFill=0;endFill=1;entryX=0.5;entryY=0;entryDx=0;entryDy=0;exitX=0.373;exitY=0.988;exitDx=0;exitDy=0;exitPerimeter=0;strokeWidth=2;flowAnimation=0;shadow=0;fillColor=#1ba1e2;strokeColor=#006EAF;" parent="1" source="lPK5GDI6R3Ej2c6hZMQd-6" target="lPK5GDI6R3Ej2c6hZMQd-28" edge="1">
          <mxGeometry width="50" height="50" relative="1" as="geometry">
            <mxPoint x="4800" y="4820" as="sourcePoint" />
            <mxPoint x="4736" y="5046" as="targetPoint" />
            <Array as="points">
              <mxPoint x="4630" y="4980" />
            </Array>
          </mxGeometry>
        </mxCell>
        <mxCell id="lPK5GDI6R3Ej2c6hZMQd-67" value="&lt;b&gt;Class notice&lt;/b&gt;" style="text;html=1;align=left;verticalAlign=middle;resizable=0;points=[];autosize=1;strokeColor=none;fillColor=none;rotation=0;fontColor=#A3A3A3;" parent="1" vertex="1">
          <mxGeometry x="4540" y="4990" width="90" height="30" as="geometry" />
        </mxCell>
        <mxCell id="lPK5GDI6R3Ej2c6hZMQd-69" value="" style="curved=1;endArrow=classic;html=1;rounded=0;startArrow=none;startFill=0;endFill=1;entryX=0;entryY=1;entryDx=0;entryDy=0;exitX=1;exitY=0.5;exitDx=0;exitDy=0;strokeWidth=2;flowAnimation=0;shadow=0;fillColor=#1ba1e2;strokeColor=#006EAF;" parent="1" source="lPK5GDI6R3Ej2c6hZMQd-28" target="lPK5GDI6R3Ej2c6hZMQd-18" edge="1">
          <mxGeometry width="50" height="50" relative="1" as="geometry">
            <mxPoint x="4880" y="4960" as="sourcePoint" />
            <mxPoint x="4570" y="5171" as="targetPoint" />
            <Array as="points">
              <mxPoint x="4810" y="5190" />
              <mxPoint x="4970" y="5060" />
            </Array>
          </mxGeometry>
        </mxCell>
        <mxCell id="lPK5GDI6R3Ej2c6hZMQd-70" value="&lt;b&gt;Notice text&lt;/b&gt;&lt;div&gt;&lt;b&gt;Notice title&lt;/b&gt;&lt;/div&gt;&lt;div&gt;&lt;b&gt;Notice time&lt;/b&gt;&lt;/div&gt;&lt;div&gt;&lt;b&gt;Class id&lt;/b&gt;&lt;/div&gt;&lt;div&gt;&lt;b&gt;Expiry date&lt;/b&gt;&lt;/div&gt;" style="text;html=1;align=left;verticalAlign=middle;resizable=0;points=[];autosize=1;strokeColor=none;fillColor=none;rotation=0;fontColor=#A3A3A3;" parent="1" vertex="1">
          <mxGeometry x="4590" y="5070" width="90" height="90" as="geometry" />
        </mxCell>
        <mxCell id="lPK5GDI6R3Ej2c6hZMQd-71" value="&lt;b&gt;Date&lt;/b&gt;&lt;div&gt;&lt;b&gt;Student id&lt;/b&gt;&lt;/div&gt;" style="text;html=1;align=left;verticalAlign=middle;resizable=0;points=[];autosize=1;strokeColor=none;fillColor=none;fontColor=#A3A3A3;" parent="1" vertex="1">
          <mxGeometry x="5150" y="4650" width="80" height="40" as="geometry" />
        </mxCell>
        <mxCell id="lPK5GDI6R3Ej2c6hZMQd-73" value="&lt;b&gt;Student lessons&lt;/b&gt;" style="text;html=1;align=left;verticalAlign=middle;resizable=0;points=[];autosize=1;strokeColor=none;fillColor=none;fontColor=#A3A3A3;" parent="1" vertex="1">
          <mxGeometry x="5220" y="4725" width="120" height="30" as="geometry" />
        </mxCell>
        <mxCell id="lPK5GDI6R3Ej2c6hZMQd-74" value="" style="curved=1;endArrow=none;html=1;rounded=0;startArrow=classic;startFill=1;endFill=0;entryX=1;entryY=0;entryDx=0;entryDy=0;exitX=0;exitY=1;exitDx=0;exitDy=0;strokeWidth=2;flowAnimation=0;shadow=0;fillColor=#1ba1e2;strokeColor=#006EAF;" parent="1" source="lPK5GDI6R3Ej2c6hZMQd-26" target="lPK5GDI6R3Ej2c6hZMQd-18" edge="1">
          <mxGeometry width="50" height="50" relative="1" as="geometry">
            <mxPoint x="5296" y="4586" as="sourcePoint" />
            <mxPoint x="5150" y="4790" as="targetPoint" />
            <Array as="points">
              <mxPoint x="5270" y="4790" />
            </Array>
          </mxGeometry>
        </mxCell>
        <mxCell id="lPK5GDI6R3Ej2c6hZMQd-76" value="" style="curved=1;endArrow=classic;html=1;rounded=0;startArrow=none;startFill=0;endFill=1;entryX=1;entryY=0.25;entryDx=0;entryDy=0;exitX=0;exitY=0;exitDx=0;exitDy=0;strokeWidth=2;flowAnimation=0;shadow=0;fillColor=#1ba1e2;strokeColor=#006EAF;" parent="1" source="lPK5GDI6R3Ej2c6hZMQd-25" target="lPK5GDI6R3Ej2c6hZMQd-18" edge="1">
          <mxGeometry width="50" height="50" relative="1" as="geometry">
            <mxPoint x="5350" y="4766" as="sourcePoint" />
            <mxPoint x="5204" y="4970" as="targetPoint" />
            <Array as="points">
              <mxPoint x="5270" y="4760" />
            </Array>
          </mxGeometry>
        </mxCell>
        <mxCell id="lPK5GDI6R3Ej2c6hZMQd-77" value="&lt;b&gt;Date&lt;/b&gt;&lt;div&gt;&lt;b&gt;Student id&lt;/b&gt;&lt;/div&gt;&lt;div&gt;&lt;b&gt;New event(s)&lt;/b&gt;&lt;/div&gt;" style="text;html=1;align=left;verticalAlign=middle;resizable=0;points=[];autosize=1;strokeColor=none;fillColor=none;fontColor=#A3A3A3;" parent="1" vertex="1">
          <mxGeometry x="5340" y="4715" width="100" height="60" as="geometry" />
        </mxCell>
        <mxCell id="lPK5GDI6R3Ej2c6hZMQd-80" value="" style="curved=1;endArrow=none;html=1;rounded=0;startArrow=classic;startFill=1;endFill=0;entryX=1;entryY=0.5;entryDx=0;entryDy=0;exitX=0;exitY=1;exitDx=0;exitDy=0;strokeWidth=2;flowAnimation=0;shadow=0;fillColor=#1ba1e2;strokeColor=#006EAF;" parent="1" source="lPK5GDI6R3Ej2c6hZMQd-25" target="lPK5GDI6R3Ej2c6hZMQd-18" edge="1">
          <mxGeometry width="50" height="50" relative="1" as="geometry">
            <mxPoint x="5396" y="4761" as="sourcePoint" />
            <mxPoint x="5180" y="4805" as="targetPoint" />
            <Array as="points">
              <mxPoint x="5300" y="4850" />
            </Array>
          </mxGeometry>
        </mxCell>
        <mxCell id="lPK5GDI6R3Ej2c6hZMQd-81" value="&lt;b&gt;Recent behaviour events&lt;/b&gt;&lt;div&gt;&lt;b&gt;Behaviour records&lt;/b&gt;&lt;/div&gt;" style="text;html=1;align=left;verticalAlign=middle;resizable=0;points=[];autosize=1;strokeColor=none;fillColor=none;fontColor=#A3A3A3;" parent="1" vertex="1">
          <mxGeometry x="5270" y="4790" width="170" height="40" as="geometry" />
        </mxCell>
        <mxCell id="lPK5GDI6R3Ej2c6hZMQd-82" value="" style="curved=1;endArrow=classic;html=1;rounded=0;startArrow=none;startFill=0;endFill=1;entryX=1;entryY=0.75;entryDx=0;entryDy=0;exitX=0.5;exitY=0;exitDx=0;exitDy=0;strokeWidth=2;flowAnimation=0;shadow=0;fillColor=#1ba1e2;strokeColor=#006EAF;" parent="1" source="lPK5GDI6R3Ej2c6hZMQd-24" target="lPK5GDI6R3Ej2c6hZMQd-18" edge="1">
          <mxGeometry width="50" height="50" relative="1" as="geometry">
            <mxPoint x="5498" y="4822" as="sourcePoint" />
            <mxPoint x="5212" y="4911" as="targetPoint" />
            <Array as="points">
              <mxPoint x="5410" y="4870" />
              <mxPoint x="5330" y="4830" />
            </Array>
          </mxGeometry>
        </mxCell>
        <mxCell id="lPK5GDI6R3Ej2c6hZMQd-83" value="&lt;b&gt;Date&lt;/b&gt;&lt;div&gt;&lt;b&gt;Student id&lt;/b&gt;&lt;/div&gt;&lt;div&gt;&lt;b&gt;New report(s)&lt;/b&gt;&lt;/div&gt;" style="text;html=1;align=left;verticalAlign=middle;resizable=0;points=[];autosize=1;strokeColor=none;fillColor=none;fontColor=#A3A3A3;" parent="1" vertex="1">
          <mxGeometry x="5340" y="4830" width="100" height="60" as="geometry" />
        </mxCell>
        <mxCell id="lPK5GDI6R3Ej2c6hZMQd-84" value="" style="curved=1;endArrow=classic;html=1;rounded=0;startArrow=none;startFill=0;endFill=1;entryX=0;entryY=0;entryDx=0;entryDy=0;exitX=1;exitY=1;exitDx=0;exitDy=0;strokeWidth=2;flowAnimation=0;shadow=0;fillColor=#1ba1e2;strokeColor=#006EAF;" parent="1" source="lPK5GDI6R3Ej2c6hZMQd-18" target="lPK5GDI6R3Ej2c6hZMQd-24" edge="1">
          <mxGeometry width="50" height="50" relative="1" as="geometry">
            <mxPoint x="5444" y="4956" as="sourcePoint" />
            <mxPoint x="5180" y="4835" as="targetPoint" />
            <Array as="points">
              <mxPoint x="5230" y="4950" />
            </Array>
          </mxGeometry>
        </mxCell>
        <mxCell id="lPK5GDI6R3Ej2c6hZMQd-86" value="&lt;b&gt;Recent tests&lt;/b&gt;&lt;div&gt;&lt;b&gt;Grades&lt;/b&gt;&lt;/div&gt;" style="text;html=1;align=left;verticalAlign=middle;resizable=0;points=[];autosize=1;strokeColor=none;fillColor=none;fontColor=#A3A3A3;" parent="1" vertex="1">
          <mxGeometry x="5250" y="4890" width="90" height="40" as="geometry" />
        </mxCell>
        <mxCell id="8pGt9EneWcGpXtYImX77-1" value="&lt;b&gt;Recent assignments&lt;/b&gt;&lt;div&gt;&lt;b&gt;Due dates&lt;/b&gt;&lt;/div&gt;" style="text;html=1;align=left;verticalAlign=middle;resizable=0;points=[];autosize=1;strokeColor=none;fillColor=none;fontColor=#A3A3A3;" parent="1" vertex="1">
          <mxGeometry x="5140" y="4980" width="140" height="40" as="geometry" />
        </mxCell>
        <mxCell id="8pGt9EneWcGpXtYImX77-2" value="&lt;b&gt;Date&lt;/b&gt;&lt;div&gt;&lt;b&gt;Student id&lt;/b&gt;&lt;/div&gt;&lt;div&gt;&lt;b&gt;New assignment(s)&lt;/b&gt;&lt;/div&gt;" style="text;html=1;align=left;verticalAlign=middle;resizable=0;points=[];autosize=1;strokeColor=none;fillColor=none;fontColor=#A3A3A3;" parent="1" vertex="1">
          <mxGeometry x="5260" y="4995" width="130" height="60" as="geometry" />
        </mxCell>
        <mxCell id="8pGt9EneWcGpXtYImX77-3" value="" style="curved=1;endArrow=classic;html=1;rounded=0;startArrow=none;startFill=0;endFill=1;entryX=0.057;entryY=0.275;entryDx=0;entryDy=0;exitX=1;exitY=1;exitDx=0;exitDy=0;entryPerimeter=0;strokeWidth=2;flowAnimation=0;shadow=0;fillColor=#1ba1e2;strokeColor=#006EAF;" parent="1" source="lPK5GDI6R3Ej2c6hZMQd-18" target="lPK5GDI6R3Ej2c6hZMQd-29" edge="1">
          <mxGeometry width="50" height="50" relative="1" as="geometry">
            <mxPoint x="5180" y="4850" as="sourcePoint" />
            <mxPoint x="5376" y="4936" as="targetPoint" />
            <Array as="points">
              <mxPoint x="5110" y="4990" />
            </Array>
          </mxGeometry>
        </mxCell>
        <mxCell id="8pGt9EneWcGpXtYImX77-5" value="" style="curved=1;endArrow=none;html=1;rounded=0;startArrow=classic;startFill=1;endFill=0;entryX=0.5;entryY=0;entryDx=0;entryDy=0;exitX=1;exitY=0.75;exitDx=0;exitDy=0;strokeWidth=2;flowAnimation=0;shadow=0;fillColor=#1ba1e2;strokeColor=#006EAF;" parent="1" source="lPK5GDI6R3Ej2c6hZMQd-18" target="lPK5GDI6R3Ej2c6hZMQd-29" edge="1">
          <mxGeometry width="50" height="50" relative="1" as="geometry">
            <mxPoint x="5180" y="4850" as="sourcePoint" />
            <mxPoint x="5226" y="5120" as="targetPoint" />
            <Array as="points">
              <mxPoint x="5300" y="4970" />
            </Array>
          </mxGeometry>
        </mxCell>
      </root>
    </mxGraphModel>
  </diagram>
</mxfile>
